<svg version="1.1" xmlns="http://www.w3.org/2000/svg" width="1312px" height="1312px" viewBox="0 0 1312 1312" preserveAspectRatio="xMinYMin meet"><rect width="100%" height="100%" fill="#ffffff" cx="0" cy="0"></rect><path d="M128,128l32,0 0,32 -32,0 0,-32z M160,128l32,0 0,32 -32,0 0,-32z M192,128l32,0 0,32 -32,0 0,-32z M224,128l32,0 0,32 -32,0 0,-32z M256,128l32,0 0,32 -32,0 0,-32z M288,128l32,0 0,32 -32,0 0,-32z M320,128l32,0 0,32 -32,0 0,-32z M448,128l32,0 0,32 -32,0 0,-32z M512,128l32,0 0,32 -32,0 0,-32z M544,128l32,0 0,32 -32,0 0,-32z M576,128l32,0 0,32 -32,0 0,-32z M608,128l32,0 0,32 -32,0 0,-32z M640,128l32,0 0,32 -32,0 0,-32z M672,128l32,0 0,32 -32,0 0,-32z M704,128l32,0 0,32 -32,0 0,-32z M864,128l32,0 0,32 -32,0 0,-32z M896,128l32,0 0,32 -32,0 0,-32z M960,128l32,0 0,32 -32,0 0,-32z M992,128l32,0 0,32 -32,0 0,-32z M1024,128l32,0 0,32 -32,0 0,-32z M1056,128l32,0 0,32 -32,0 0,-32z M1088,128l32,0 0,32 -32,0 0,-32z M1120,128l32,0 0,32 -32,0 0,-32z M1152,128l32,0 0,32 -32,0 0,-32z M128,160l32,0 0,32 -32,0 0,-32z M320,160l32,0 0,32 -32,0 0,-32z M480,160l32,0 0,32 -32,0 0,-32z M512,160l32,0 0,32 -32,0 0,-32z M576,160l32,0 0,32 -32,0 0,-32z M768,160l32,0 0,32 -32,0 0,-32z M800,160l32,0 0,32 -32,0 0,-32z M832,160l32,0 0,32 -32,0 0,-32z M864,160l32,0 0,32 -32,0 0,-32z M960,160l32,0 0,32 -32,0 0,-32z M1152,160l32,0 0,32 -32,0 0,-32z M128,192l32,0 0,32 -32,0 0,-32z M192,192l32,0 0,32 -32,0 0,-32z M224,192l32,0 0,32 -32,0 0,-32z M256,192l32,0 0,32 -32,0 0,-32z M320,192l32,0 0,32 -32,0 0,-32z M448,192l32,0 0,32 -32,0 0,-32z M512,192l32,0 0,32 -32,0 0,-32z M544,192l32,0 0,32 -32,0 0,-32z M640,192l32,0 0,32 -32,0 0,-32z M704,192l32,0 0,32 -32,0 0,-32z M736,192l32,0 0,32 -32,0 0,-32z M768,192l32,0 0,32 -32,0 0,-32z M864,192l32,0 0,32 -32,0 0,-32z M960,192l32,0 0,32 -32,0 0,-32z M1024,192l32,0 0,32 -32,0 0,-32z M1056,192l32,0 0,32 -32,0 0,-32z M1088,192l32,0 0,32 -32,0 0,-32z M1152,192l32,0 0,32 -32,0 0,-32z M128,224l32,0 0,32 -32,0 0,-32z M192,224l32,0 0,32 -32,0 0,-32z M224,224l32,0 0,32 -32,0 0,-32z M256,224l32,0 0,32 -32,0 0,-32z M320,224l32,0 0,32 -32,0 0,-32z M448,224l32,0 0,32 -32,0 0,-32z M512,224l32,0 0,32 -32,0 0,-32z M576,224l32,0 0,32 -32,0 0,-32z M608,224l32,0 0,32 -32,0 0,-32z M704,224l32,0 0,32 -32,0 0,-32z M832,224l32,0 0,32 -32,0 0,-32z M864,224l32,0 0,32 -32,0 0,-32z M960,224l32,0 0,32 -32,0 0,-32z M1024,224l32,0 0,32 -32,0 0,-32z M1056,224l32,0 0,32 -32,0 0,-32z M1088,224l32,0 0,32 -32,0 0,-32z M1152,224l32,0 0,32 -32,0 0,-32z M128,256l32,0 0,32 -32,0 0,-32z M192,256l32,0 0,32 -32,0 0,-32z M224,256l32,0 0,32 -32,0 0,-32z M256,256l32,0 0,32 -32,0 0,-32z M320,256l32,0 0,32 -32,0 0,-32z M384,256l32,0 0,32 -32,0 0,-32z M448,256l32,0 0,32 -32,0 0,-32z M480,256l32,0 0,32 -32,0 0,-32z M544,256l32,0 0,32 -32,0 0,-32z M576,256l32,0 0,32 -32,0 0,-32z M608,256l32,0 0,32 -32,0 0,-32z M640,256l32,0 0,32 -32,0 0,-32z M704,256l32,0 0,32 -32,0 0,-32z M800,256l32,0 0,32 -32,0 0,-32z M832,256l32,0 0,32 -32,0 0,-32z M864,256l32,0 0,32 -32,0 0,-32z M960,256l32,0 0,32 -32,0 0,-32z M1024,256l32,0 0,32 -32,0 0,-32z M1056,256l32,0 0,32 -32,0 0,-32z M1088,256l32,0 0,32 -32,0 0,-32z M1152,256l32,0 0,32 -32,0 0,-32z M128,288l32,0 0,32 -32,0 0,-32z M320,288l32,0 0,32 -32,0 0,-32z M416,288l32,0 0,32 -32,0 0,-32z M480,288l32,0 0,32 -32,0 0,-32z M608,288l32,0 0,32 -32,0 0,-32z M640,288l32,0 0,32 -32,0 0,-32z M672,288l32,0 0,32 -32,0 0,-32z M736,288l32,0 0,32 -32,0 0,-32z M768,288l32,0 0,32 -32,0 0,-32z M832,288l32,0 0,32 -32,0 0,-32z M896,288l32,0 0,32 -32,0 0,-32z M960,288l32,0 0,32 -32,0 0,-32z M1152,288l32,0 0,32 -32,0 0,-32z M128,320l32,0 0,32 -32,0 0,-32z M160,320l32,0 0,32 -32,0 0,-32z M192,320l32,0 0,32 -32,0 0,-32z M224,320l32,0 0,32 -32,0 0,-32z M256,320l32,0 0,32 -32,0 0,-32z M288,320l32,0 0,32 -32,0 0,-32z M320,320l32,0 0,32 -32,0 0,-32z M384,320l32,0 0,32 -32,0 0,-32z M448,320l32,0 0,32 -32,0 0,-32z M512,320l32,0 0,32 -32,0 0,-32z M576,320l32,0 0,32 -32,0 0,-32z M640,320l32,0 0,32 -32,0 0,-32z M704,320l32,0 0,32 -32,0 0,-32z M768,320l32,0 0,32 -32,0 0,-32z M832,320l32,0 0,32 -32,0 0,-32z M896,320l32,0 0,32 -32,0 0,-32z M960,320l32,0 0,32 -32,0 0,-32z M992,320l32,0 0,32 -32,0 0,-32z M1024,320l32,0 0,32 -32,0 0,-32z M1056,320l32,0 0,32 -32,0 0,-32z M1088,320l32,0 0,32 -32,0 0,-32z M1120,320l32,0 0,32 -32,0 0,-32z M1152,320l32,0 0,32 -32,0 0,-32z M384,352l32,0 0,32 -32,0 0,-32z M448,352l32,0 0,32 -32,0 0,-32z M512,352l32,0 0,32 -32,0 0,-32z M544,352l32,0 0,32 -32,0 0,-32z M576,352l32,0 0,32 -32,0 0,-32z M608,352l32,0 0,32 -32,0 0,-32z M640,352l32,0 0,32 -32,0 0,-32z M864,352l32,0 0,32 -32,0 0,-32z M192,384l32,0 0,32 -32,0 0,-32z M224,384l32,0 0,32 -32,0 0,-32z M320,384l32,0 0,32 -32,0 0,-32z M352,384l32,0 0,32 -32,0 0,-32z M384,384l32,0 0,32 -32,0 0,-32z M416,384l32,0 0,32 -32,0 0,-32z M544,384l32,0 0,32 -32,0 0,-32z M768,384l32,0 0,32 -32,0 0,-32z M800,384l32,0 0,32 -32,0 0,-32z M928,384l32,0 0,32 -32,0 0,-32z M960,384l32,0 0,32 -32,0 0,-32z M1024,384l32,0 0,32 -32,0 0,-32z M160,416l32,0 0,32 -32,0 0,-32z M224,416l32,0 0,32 -32,0 0,-32z M288,416l32,0 0,32 -32,0 0,-32z M448,416l32,0 0,32 -32,0 0,-32z M480,416l32,0 0,32 -32,0 0,-32z M576,416l32,0 0,32 -32,0 0,-32z M608,416l32,0 0,32 -32,0 0,-32z M672,416l32,0 0,32 -32,0 0,-32z M736,416l32,0 0,32 -32,0 0,-32z M832,416l32,0 0,32 -32,0 0,-32z M864,416l32,0 0,32 -32,0 0,-32z M928,416l32,0 0,32 -32,0 0,-32z M960,416l32,0 0,32 -32,0 0,-32z M1056,416l32,0 0,32 -32,0 0,-32z M1088,416l32,0 0,32 -32,0 0,-32z M1152,416l32,0 0,32 -32,0 0,-32z M128,448l32,0 0,32 -32,0 0,-32z M192,448l32,0 0,32 -32,0 0,-32z M224,448l32,0 0,32 -32,0 0,-32z M320,448l32,0 0,32 -32,0 0,-32z M352,448l32,0 0,32 -32,0 0,-32z M480,448l32,0 0,32 -32,0 0,-32z M544,448l32,0 0,32 -32,0 0,-32z M640,448l32,0 0,32 -32,0 0,-32z M736,448l32,0 0,32 -32,0 0,-32z M768,448l32,0 0,32 -32,0 0,-32z M800,448l32,0 0,32 -32,0 0,-32z M832,448l32,0 0,32 -32,0 0,-32z M864,448l32,0 0,32 -32,0 0,-32z M960,448l32,0 0,32 -32,0 0,-32z M1056,448l32,0 0,32 -32,0 0,-32z M1088,448l32,0 0,32 -32,0 0,-32z M1120,448l32,0 0,32 -32,0 0,-32z M1152,448l32,0 0,32 -32,0 0,-32z M352,480l32,0 0,32 -32,0 0,-32z M384,480l32,0 0,32 -32,0 0,-32z M448,480l32,0 0,32 -32,0 0,-32z M640,480l32,0 0,32 -32,0 0,-32z M672,480l32,0 0,32 -32,0 0,-32z M736,480l32,0 0,32 -32,0 0,-32z M800,480l32,0 0,32 -32,0 0,-32z M832,480l32,0 0,32 -32,0 0,-32z M896,480l32,0 0,32 -32,0 0,-32z M928,480l32,0 0,32 -32,0 0,-32z M992,480l32,0 0,32 -32,0 0,-32z M1024,480l32,0 0,32 -32,0 0,-32z M1056,480l32,0 0,32 -32,0 0,-32z M1152,480l32,0 0,32 -32,0 0,-32z M160,512l32,0 0,32 -32,0 0,-32z M192,512l32,0 0,32 -32,0 0,-32z M224,512l32,0 0,32 -32,0 0,-32z M256,512l32,0 0,32 -32,0 0,-32z M320,512l32,0 0,32 -32,0 0,-32z M384,512l32,0 0,32 -32,0 0,-32z M448,512l32,0 0,32 -32,0 0,-32z M480,512l32,0 0,32 -32,0 0,-32z M544,512l32,0 0,32 -32,0 0,-32z M608,512l32,0 0,32 -32,0 0,-32z M672,512l32,0 0,32 -32,0 0,-32z M800,512l32,0 0,32 -32,0 0,-32z M832,512l32,0 0,32 -32,0 0,-32z M896,512l32,0 0,32 -32,0 0,-32z M928,512l32,0 0,32 -32,0 0,-32z M992,512l32,0 0,32 -32,0 0,-32z M1024,512l32,0 0,32 -32,0 0,-32z M1152,512l32,0 0,32 -32,0 0,-32z M192,544l32,0 0,32 -32,0 0,-32z M224,544l32,0 0,32 -32,0 0,-32z M256,544l32,0 0,32 -32,0 0,-32z M352,544l32,0 0,32 -32,0 0,-32z M384,544l32,0 0,32 -32,0 0,-32z M416,544l32,0 0,32 -32,0 0,-32z M480,544l32,0 0,32 -32,0 0,-32z M512,544l32,0 0,32 -32,0 0,-32z M544,544l32,0 0,32 -32,0 0,-32z M640,544l32,0 0,32 -32,0 0,-32z M704,544l32,0 0,32 -32,0 0,-32z M736,544l32,0 0,32 -32,0 0,-32z M768,544l32,0 0,32 -32,0 0,-32z M800,544l32,0 0,32 -32,0 0,-32z M896,544l32,0 0,32 -32,0 0,-32z M1088,544l32,0 0,32 -32,0 0,-32z M128,576l32,0 0,32 -32,0 0,-32z M160,576l32,0 0,32 -32,0 0,-32z M192,576l32,0 0,32 -32,0 0,-32z M320,576l32,0 0,32 -32,0 0,-32z M352,576l32,0 0,32 -32,0 0,-32z M384,576l32,0 0,32 -32,0 0,-32z M448,576l32,0 0,32 -32,0 0,-32z M480,576l32,0 0,32 -32,0 0,-32z M512,576l32,0 0,32 -32,0 0,-32z M544,576l32,0 0,32 -32,0 0,-32z M576,576l32,0 0,32 -32,0 0,-32z M640,576l32,0 0,32 -32,0 0,-32z M704,576l32,0 0,32 -32,0 0,-32z M768,576l32,0 0,32 -32,0 0,-32z M800,576l32,0 0,32 -32,0 0,-32z M896,576l32,0 0,32 -32,0 0,-32z M992,576l32,0 0,32 -32,0 0,-32z M1088,576l32,0 0,32 -32,0 0,-32z M128,608l32,0 0,32 -32,0 0,-32z M224,608l32,0 0,32 -32,0 0,-32z M256,608l32,0 0,32 -32,0 0,-32z M384,608l32,0 0,32 -32,0 0,-32z M448,608l32,0 0,32 -32,0 0,-32z M576,608l32,0 0,32 -32,0 0,-32z M608,608l32,0 0,32 -32,0 0,-32z M736,608l32,0 0,32 -32,0 0,-32z M800,608l32,0 0,32 -32,0 0,-32z M832,608l32,0 0,32 -32,0 0,-32z M864,608l32,0 0,32 -32,0 0,-32z M928,608l32,0 0,32 -32,0 0,-32z M960,608l32,0 0,32 -32,0 0,-32z M1024,608l32,0 0,32 -32,0 0,-32z M1056,608l32,0 0,32 -32,0 0,-32z M1088,608l32,0 0,32 -32,0 0,-32z M1152,608l32,0 0,32 -32,0 0,-32z M128,640l32,0 0,32 -32,0 0,-32z M160,640l32,0 0,32 -32,0 0,-32z M256,640l32,0 0,32 -32,0 0,-32z M320,640l32,0 0,32 -32,0 0,-32z M352,640l32,0 0,32 -32,0 0,-32z M416,640l32,0 0,32 -32,0 0,-32z M448,640l32,0 0,32 -32,0 0,-32z M480,640l32,0 0,32 -32,0 0,-32z M544,640l32,0 0,32 -32,0 0,-32z M576,640l32,0 0,32 -32,0 0,-32z M640,640l32,0 0,32 -32,0 0,-32z M672,640l32,0 0,32 -32,0 0,-32z M800,640l32,0 0,32 -32,0 0,-32z M896,640l32,0 0,32 -32,0 0,-32z M928,640l32,0 0,32 -32,0 0,-32z M960,640l32,0 0,32 -32,0 0,-32z M1024,640l32,0 0,32 -32,0 0,-32z M1056,640l32,0 0,32 -32,0 0,-32z M1088,640l32,0 0,32 -32,0 0,-32z M1120,640l32,0 0,32 -32,0 0,-32z M192,672l32,0 0,32 -32,0 0,-32z M288,672l32,0 0,32 -32,0 0,-32z M384,672l32,0 0,32 -32,0 0,-32z M416,672l32,0 0,32 -32,0 0,-32z M480,672l32,0 0,32 -32,0 0,-32z M640,672l32,0 0,32 -32,0 0,-32z M672,672l32,0 0,32 -32,0 0,-32z M736,672l32,0 0,32 -32,0 0,-32z M768,672l32,0 0,32 -32,0 0,-32z M832,672l32,0 0,32 -32,0 0,-32z M864,672l32,0 0,32 -32,0 0,-32z M928,672l32,0 0,32 -32,0 0,-32z M960,672l32,0 0,32 -32,0 0,-32z M992,672l32,0 0,32 -32,0 0,-32z M1024,672l32,0 0,32 -32,0 0,-32z M1088,672l32,0 0,32 -32,0 0,-32z M1120,672l32,0 0,32 -32,0 0,-32z M1152,672l32,0 0,32 -32,0 0,-32z M160,704l32,0 0,32 -32,0 0,-32z M224,704l32,0 0,32 -32,0 0,-32z M320,704l32,0 0,32 -32,0 0,-32z M352,704l32,0 0,32 -32,0 0,-32z M480,704l32,0 0,32 -32,0 0,-32z M512,704l32,0 0,32 -32,0 0,-32z M544,704l32,0 0,32 -32,0 0,-32z M576,704l32,0 0,32 -32,0 0,-32z M672,704l32,0 0,32 -32,0 0,-32z M800,704l32,0 0,32 -32,0 0,-32z M928,704l32,0 0,32 -32,0 0,-32z M960,704l32,0 0,32 -32,0 0,-32z M992,704l32,0 0,32 -32,0 0,-32z M1024,704l32,0 0,32 -32,0 0,-32z M1088,704l32,0 0,32 -32,0 0,-32z M160,736l32,0 0,32 -32,0 0,-32z M192,736l32,0 0,32 -32,0 0,-32z M224,736l32,0 0,32 -32,0 0,-32z M384,736l32,0 0,32 -32,0 0,-32z M416,736l32,0 0,32 -32,0 0,-32z M448,736l32,0 0,32 -32,0 0,-32z M704,736l32,0 0,32 -32,0 0,-32z M736,736l32,0 0,32 -32,0 0,-32z M768,736l32,0 0,32 -32,0 0,-32z M928,736l32,0 0,32 -32,0 0,-32z M992,736l32,0 0,32 -32,0 0,-32z M1024,736l32,0 0,32 -32,0 0,-32z M160,768l32,0 0,32 -32,0 0,-32z M192,768l32,0 0,32 -32,0 0,-32z M320,768l32,0 0,32 -32,0 0,-32z M416,768l32,0 0,32 -32,0 0,-32z M448,768l32,0 0,32 -32,0 0,-32z M480,768l32,0 0,32 -32,0 0,-32z M512,768l32,0 0,32 -32,0 0,-32z M544,768l32,0 0,32 -32,0 0,-32z M608,768l32,0 0,32 -32,0 0,-32z M640,768l32,0 0,32 -32,0 0,-32z M736,768l32,0 0,32 -32,0 0,-32z M768,768l32,0 0,32 -32,0 0,-32z M800,768l32,0 0,32 -32,0 0,-32z M928,768l32,0 0,32 -32,0 0,-32z M992,768l32,0 0,32 -32,0 0,-32z M1056,768l32,0 0,32 -32,0 0,-32z M1088,768l32,0 0,32 -32,0 0,-32z M1120,768l32,0 0,32 -32,0 0,-32z M128,800l32,0 0,32 -32,0 0,-32z M160,800l32,0 0,32 -32,0 0,-32z M192,800l32,0 0,32 -32,0 0,-32z M256,800l32,0 0,32 -32,0 0,-32z M544,800l32,0 0,32 -32,0 0,-32z M576,800l32,0 0,32 -32,0 0,-32z M736,800l32,0 0,32 -32,0 0,-32z M800,800l32,0 0,32 -32,0 0,-32z M832,800l32,0 0,32 -32,0 0,-32z M1056,800l32,0 0,32 -32,0 0,-32z M1120,800l32,0 0,32 -32,0 0,-32z M1152,800l32,0 0,32 -32,0 0,-32z M224,832l32,0 0,32 -32,0 0,-32z M256,832l32,0 0,32 -32,0 0,-32z M320,832l32,0 0,32 -32,0 0,-32z M352,832l32,0 0,32 -32,0 0,-32z M384,832l32,0 0,32 -32,0 0,-32z M448,832l32,0 0,32 -32,0 0,-32z M512,832l32,0 0,32 -32,0 0,-32z M608,832l32,0 0,32 -32,0 0,-32z M672,832l32,0 0,32 -32,0 0,-32z M704,832l32,0 0,32 -32,0 0,-32z M736,832l32,0 0,32 -32,0 0,-32z M768,832l32,0 0,32 -32,0 0,-32z M832,832l32,0 0,32 -32,0 0,-32z M960,832l32,0 0,32 -32,0 0,-32z M992,832l32,0 0,32 -32,0 0,-32z M1024,832l32,0 0,32 -32,0 0,-32z M1088,832l32,0 0,32 -32,0 0,-32z M1120,832l32,0 0,32 -32,0 0,-32z M1152,832l32,0 0,32 -32,0 0,-32z M160,864l32,0 0,32 -32,0 0,-32z M256,864l32,0 0,32 -32,0 0,-32z M384,864l32,0 0,32 -32,0 0,-32z M448,864l32,0 0,32 -32,0 0,-32z M480,864l32,0 0,32 -32,0 0,-32z M512,864l32,0 0,32 -32,0 0,-32z M544,864l32,0 0,32 -32,0 0,-32z M640,864l32,0 0,32 -32,0 0,-32z M736,864l32,0 0,32 -32,0 0,-32z M768,864l32,0 0,32 -32,0 0,-32z M864,864l32,0 0,32 -32,0 0,-32z M896,864l32,0 0,32 -32,0 0,-32z M928,864l32,0 0,32 -32,0 0,-32z M992,864l32,0 0,32 -32,0 0,-32z M1056,864l32,0 0,32 -32,0 0,-32z M1152,864l32,0 0,32 -32,0 0,-32z M128,896l32,0 0,32 -32,0 0,-32z M192,896l32,0 0,32 -32,0 0,-32z M288,896l32,0 0,32 -32,0 0,-32z M320,896l32,0 0,32 -32,0 0,-32z M352,896l32,0 0,32 -32,0 0,-32z M384,896l32,0 0,32 -32,0 0,-32z M544,896l32,0 0,32 -32,0 0,-32z M576,896l32,0 0,32 -32,0 0,-32z M704,896l32,0 0,32 -32,0 0,-32z M768,896l32,0 0,32 -32,0 0,-32z M832,896l32,0 0,32 -32,0 0,-32z M864,896l32,0 0,32 -32,0 0,-32z M896,896l32,0 0,32 -32,0 0,-32z M928,896l32,0 0,32 -32,0 0,-32z M960,896l32,0 0,32 -32,0 0,-32z M992,896l32,0 0,32 -32,0 0,-32z M1024,896l32,0 0,32 -32,0 0,-32z M384,928l32,0 0,32 -32,0 0,-32z M416,928l32,0 0,32 -32,0 0,-32z M512,928l32,0 0,32 -32,0 0,-32z M576,928l32,0 0,32 -32,0 0,-32z M608,928l32,0 0,32 -32,0 0,-32z M640,928l32,0 0,32 -32,0 0,-32z M672,928l32,0 0,32 -32,0 0,-32z M704,928l32,0 0,32 -32,0 0,-32z M768,928l32,0 0,32 -32,0 0,-32z M896,928l32,0 0,32 -32,0 0,-32z M1024,928l32,0 0,32 -32,0 0,-32z M1056,928l32,0 0,32 -32,0 0,-32z M128,960l32,0 0,32 -32,0 0,-32z M160,960l32,0 0,32 -32,0 0,-32z M192,960l32,0 0,32 -32,0 0,-32z M224,960l32,0 0,32 -32,0 0,-32z M256,960l32,0 0,32 -32,0 0,-32z M288,960l32,0 0,32 -32,0 0,-32z M320,960l32,0 0,32 -32,0 0,-32z M384,960l32,0 0,32 -32,0 0,-32z M448,960l32,0 0,32 -32,0 0,-32z M512,960l32,0 0,32 -32,0 0,-32z M672,960l32,0 0,32 -32,0 0,-32z M704,960l32,0 0,32 -32,0 0,-32z M768,960l32,0 0,32 -32,0 0,-32z M832,960l32,0 0,32 -32,0 0,-32z M864,960l32,0 0,32 -32,0 0,-32z M896,960l32,0 0,32 -32,0 0,-32z M960,960l32,0 0,32 -32,0 0,-32z M1024,960l32,0 0,32 -32,0 0,-32z M1056,960l32,0 0,32 -32,0 0,-32z M128,992l32,0 0,32 -32,0 0,-32z M320,992l32,0 0,32 -32,0 0,-32z M448,992l32,0 0,32 -32,0 0,-32z M512,992l32,0 0,32 -32,0 0,-32z M544,992l32,0 0,32 -32,0 0,-32z M608,992l32,0 0,32 -32,0 0,-32z M736,992l32,0 0,32 -32,0 0,-32z M800,992l32,0 0,32 -32,0 0,-32z M832,992l32,0 0,32 -32,0 0,-32z M864,992l32,0 0,32 -32,0 0,-32z M896,992l32,0 0,32 -32,0 0,-32z M1024,992l32,0 0,32 -32,0 0,-32z M1088,992l32,0 0,32 -32,0 0,-32z M1120,992l32,0 0,32 -32,0 0,-32z M1152,992l32,0 0,32 -32,0 0,-32z M128,1024l32,0 0,32 -32,0 0,-32z M192,1024l32,0 0,32 -32,0 0,-32z M224,1024l32,0 0,32 -32,0 0,-32z M256,1024l32,0 0,32 -32,0 0,-32z M320,1024l32,0 0,32 -32,0 0,-32z M416,1024l32,0 0,32 -32,0 0,-32z M480,1024l32,0 0,32 -32,0 0,-32z M512,1024l32,0 0,32 -32,0 0,-32z M576,1024l32,0 0,32 -32,0 0,-32z M736,1024l32,0 0,32 -32,0 0,-32z M768,1024l32,0 0,32 -32,0 0,-32z M864,1024l32,0 0,32 -32,0 0,-32z M896,1024l32,0 0,32 -32,0 0,-32z M928,1024l32,0 0,32 -32,0 0,-32z M960,1024l32,0 0,32 -32,0 0,-32z M992,1024l32,0 0,32 -32,0 0,-32z M1024,1024l32,0 0,32 -32,0 0,-32z M1056,1024l32,0 0,32 -32,0 0,-32z M1088,1024l32,0 0,32 -32,0 0,-32z M1120,1024l32,0 0,32 -32,0 0,-32z M128,1056l32,0 0,32 -32,0 0,-32z M192,1056l32,0 0,32 -32,0 0,-32z M224,1056l32,0 0,32 -32,0 0,-32z M256,1056l32,0 0,32 -32,0 0,-32z M320,1056l32,0 0,32 -32,0 0,-32z M384,1056l32,0 0,32 -32,0 0,-32z M448,1056l32,0 0,32 -32,0 0,-32z M512,1056l32,0 0,32 -32,0 0,-32z M640,1056l32,0 0,32 -32,0 0,-32z M672,1056l32,0 0,32 -32,0 0,-32z M800,1056l32,0 0,32 -32,0 0,-32z M864,1056l32,0 0,32 -32,0 0,-32z M992,1056l32,0 0,32 -32,0 0,-32z M1088,1056l32,0 0,32 -32,0 0,-32z M128,1088l32,0 0,32 -32,0 0,-32z M192,1088l32,0 0,32 -32,0 0,-32z M224,1088l32,0 0,32 -32,0 0,-32z M256,1088l32,0 0,32 -32,0 0,-32z M320,1088l32,0 0,32 -32,0 0,-32z M384,1088l32,0 0,32 -32,0 0,-32z M448,1088l32,0 0,32 -32,0 0,-32z M480,1088l32,0 0,32 -32,0 0,-32z M544,1088l32,0 0,32 -32,0 0,-32z M576,1088l32,0 0,32 -32,0 0,-32z M640,1088l32,0 0,32 -32,0 0,-32z M672,1088l32,0 0,32 -32,0 0,-32z M736,1088l32,0 0,32 -32,0 0,-32z M800,1088l32,0 0,32 -32,0 0,-32z M928,1088l32,0 0,32 -32,0 0,-32z M960,1088l32,0 0,32 -32,0 0,-32z M1056,1088l32,0 0,32 -32,0 0,-32z M1088,1088l32,0 0,32 -32,0 0,-32z M128,1120l32,0 0,32 -32,0 0,-32z M320,1120l32,0 0,32 -32,0 0,-32z M416,1120l32,0 0,32 -32,0 0,-32z M448,1120l32,0 0,32 -32,0 0,-32z M480,1120l32,0 0,32 -32,0 0,-32z M576,1120l32,0 0,32 -32,0 0,-32z M608,1120l32,0 0,32 -32,0 0,-32z M640,1120l32,0 0,32 -32,0 0,-32z M704,1120l32,0 0,32 -32,0 0,-32z M768,1120l32,0 0,32 -32,0 0,-32z M864,1120l32,0 0,32 -32,0 0,-32z M896,1120l32,0 0,32 -32,0 0,-32z M928,1120l32,0 0,32 -32,0 0,-32z M1152,1120l32,0 0,32 -32,0 0,-32z M128,1152l32,0 0,32 -32,0 0,-32z M160,1152l32,0 0,32 -32,0 0,-32z M192,1152l32,0 0,32 -32,0 0,-32z M224,1152l32,0 0,32 -32,0 0,-32z M256,1152l32,0 0,32 -32,0 0,-32z M288,1152l32,0 0,32 -32,0 0,-32z M320,1152l32,0 0,32 -32,0 0,-32z M416,1152l32,0 0,32 -32,0 0,-32z M448,1152l32,0 0,32 -32,0 0,-32z M672,1152l32,0 0,32 -32,0 0,-32z M704,1152l32,0 0,32 -32,0 0,-32z M736,1152l32,0 0,32 -32,0 0,-32z M832,1152l32,0 0,32 -32,0 0,-32z M864,1152l32,0 0,32 -32,0 0,-32z M928,1152l32,0 0,32 -32,0 0,-32z M992,1152l32,0 0,32 -32,0 0,-32z M1024,1152l32,0 0,32 -32,0 0,-32z M1088,1152l32,0 0,32 -32,0 0,-32z " stroke="transparent" fill="#000000"></path></svg>